<mxfile host="app.diagrams.net" modified="2023-11-22T14:45:19.779Z" agent="Mozilla/5.0 (Macintosh; Intel Mac OS X 10_15_7) AppleWebKit/537.36 (KHTML, like Gecko) Chrome/119.0.0.0 Safari/537.36" version="21.7.2" etag="TcJbH6ommTMdDLXcg-UY" type="github">
  <diagram name="PÃ¡gina-1" id="Q6UjCD8Ogbrj1XXTGMY5">
    <mxGraphModel>
      <root>
        <mxCell id="0" />
        <mxCell id="1" parent="0" />
      </root>
    </mxGraphModel>
  </diagram>
</mxfile>
